%TF.GenerationSoftware,KiCad,Pcbnew,9.0.7*%
%TF.CreationDate,2026-04-30T16:34:15-04:00*%
%TF.ProjectId,demo,64656d6f-2e6b-4696-9361-645f70636258,rev?*%
%TF.SameCoordinates,Original*%
%TF.FileFunction,Legend,Top*%
%TF.FilePolarity,Positive*%
%FSLAX46Y46*%
G04 Gerber Fmt 4.6, Leading zero omitted, Abs format (unit mm)*
G04 Created by KiCad (PCBNEW 9.0.7) date 2026-04-30 16:34:15*
%MOMM*%
%LPD*%
G01*
G04 APERTURE LIST*
%ADD10C,0.150000*%
G04 APERTURE END LIST*
D10*
X1576667Y-9309726D02*
X1576667Y-10216869D01*
X1576667Y-10216869D02*
X1516190Y-10398297D01*
X1516190Y-10398297D02*
X1395238Y-10519250D01*
X1395238Y-10519250D02*
X1213809Y-10579726D01*
X1213809Y-10579726D02*
X1092857Y-10579726D01*
X2846667Y-10579726D02*
X2120952Y-10579726D01*
X2483809Y-10579726D02*
X2483809Y-9309726D01*
X2483809Y-9309726D02*
X2362857Y-9491154D01*
X2362857Y-9491154D02*
X2241905Y-9612107D01*
X2241905Y-9612107D02*
X2120952Y-9672583D01*
X11032380Y-9309726D02*
X11032380Y-10337821D01*
X11032380Y-10337821D02*
X11092857Y-10458773D01*
X11092857Y-10458773D02*
X11153333Y-10519250D01*
X11153333Y-10519250D02*
X11274285Y-10579726D01*
X11274285Y-10579726D02*
X11516190Y-10579726D01*
X11516190Y-10579726D02*
X11637142Y-10519250D01*
X11637142Y-10519250D02*
X11697619Y-10458773D01*
X11697619Y-10458773D02*
X11758095Y-10337821D01*
X11758095Y-10337821D02*
X11758095Y-9309726D01*
X13028095Y-10579726D02*
X12302380Y-10579726D01*
X12665237Y-10579726D02*
X12665237Y-9309726D01*
X12665237Y-9309726D02*
X12544285Y-9491154D01*
X12544285Y-9491154D02*
X12423333Y-9612107D01*
X12423333Y-9612107D02*
X12302380Y-9672583D01*
X15788333Y-10458773D02*
X15727857Y-10519250D01*
X15727857Y-10519250D02*
X15546428Y-10579726D01*
X15546428Y-10579726D02*
X15425476Y-10579726D01*
X15425476Y-10579726D02*
X15244047Y-10519250D01*
X15244047Y-10519250D02*
X15123095Y-10398297D01*
X15123095Y-10398297D02*
X15062618Y-10277345D01*
X15062618Y-10277345D02*
X15002142Y-10035440D01*
X15002142Y-10035440D02*
X15002142Y-9854011D01*
X15002142Y-9854011D02*
X15062618Y-9612107D01*
X15062618Y-9612107D02*
X15123095Y-9491154D01*
X15123095Y-9491154D02*
X15244047Y-9370202D01*
X15244047Y-9370202D02*
X15425476Y-9309726D01*
X15425476Y-9309726D02*
X15546428Y-9309726D01*
X15546428Y-9309726D02*
X15727857Y-9370202D01*
X15727857Y-9370202D02*
X15788333Y-9430678D01*
X16997857Y-10579726D02*
X16272142Y-10579726D01*
X16634999Y-10579726D02*
X16634999Y-9309726D01*
X16634999Y-9309726D02*
X16514047Y-9491154D01*
X16514047Y-9491154D02*
X16393095Y-9612107D01*
X16393095Y-9612107D02*
X16272142Y-9672583D01*
M02*
