%TF.GenerationSoftware,KiCad,Pcbnew,9.0.7*%
%TF.CreationDate,2026-04-30T17:43:27-04:00*%
%TF.ProjectId,test_pads_inside_pads,74657374-5f70-4616-9473-5f696e736964,rev?*%
%TF.SameCoordinates,Original*%
%TF.FileFunction,Legend,Top*%
%TF.FilePolarity,Positive*%
%FSLAX46Y46*%
G04 Gerber Fmt 4.6, Leading zero omitted, Abs format (unit mm)*
G04 Created by KiCad (PCBNEW 9.0.7) date 2026-04-30 17:43:27*
%MOMM*%
%LPD*%
G01*
G04 APERTURE LIST*
%ADD10C,0.254000*%
%ADD11C,0.150000*%
%ADD12C,0.381000*%
G04 APERTURE END LIST*
D10*
X88785095Y-34049812D02*
X88785095Y-33033812D01*
X88785095Y-33033812D02*
X89172143Y-33033812D01*
X89172143Y-33033812D02*
X89268905Y-33082193D01*
X89268905Y-33082193D02*
X89317286Y-33130574D01*
X89317286Y-33130574D02*
X89365667Y-33227336D01*
X89365667Y-33227336D02*
X89365667Y-33372479D01*
X89365667Y-33372479D02*
X89317286Y-33469241D01*
X89317286Y-33469241D02*
X89268905Y-33517622D01*
X89268905Y-33517622D02*
X89172143Y-33566003D01*
X89172143Y-33566003D02*
X88785095Y-33566003D01*
X90333286Y-34049812D02*
X89752714Y-34049812D01*
X90043000Y-34049812D02*
X90043000Y-33033812D01*
X90043000Y-33033812D02*
X89946238Y-33178955D01*
X89946238Y-33178955D02*
X89849476Y-33275717D01*
X89849476Y-33275717D02*
X89752714Y-33324098D01*
X106946095Y-43001812D02*
X106946095Y-41985812D01*
X106946095Y-41985812D02*
X107333143Y-41985812D01*
X107333143Y-41985812D02*
X107429905Y-42034193D01*
X107429905Y-42034193D02*
X107478286Y-42082574D01*
X107478286Y-42082574D02*
X107526667Y-42179336D01*
X107526667Y-42179336D02*
X107526667Y-42324479D01*
X107526667Y-42324479D02*
X107478286Y-42421241D01*
X107478286Y-42421241D02*
X107429905Y-42469622D01*
X107429905Y-42469622D02*
X107333143Y-42518003D01*
X107333143Y-42518003D02*
X106946095Y-42518003D01*
X107913714Y-42082574D02*
X107962095Y-42034193D01*
X107962095Y-42034193D02*
X108058857Y-41985812D01*
X108058857Y-41985812D02*
X108300762Y-41985812D01*
X108300762Y-41985812D02*
X108397524Y-42034193D01*
X108397524Y-42034193D02*
X108445905Y-42082574D01*
X108445905Y-42082574D02*
X108494286Y-42179336D01*
X108494286Y-42179336D02*
X108494286Y-42276098D01*
X108494286Y-42276098D02*
X108445905Y-42421241D01*
X108445905Y-42421241D02*
X107865333Y-43001812D01*
X107865333Y-43001812D02*
X108494286Y-43001812D01*
X86372095Y-58876812D02*
X86372095Y-57860812D01*
X86372095Y-57860812D02*
X86759143Y-57860812D01*
X86759143Y-57860812D02*
X86855905Y-57909193D01*
X86855905Y-57909193D02*
X86904286Y-57957574D01*
X86904286Y-57957574D02*
X86952667Y-58054336D01*
X86952667Y-58054336D02*
X86952667Y-58199479D01*
X86952667Y-58199479D02*
X86904286Y-58296241D01*
X86904286Y-58296241D02*
X86855905Y-58344622D01*
X86855905Y-58344622D02*
X86759143Y-58393003D01*
X86759143Y-58393003D02*
X86372095Y-58393003D01*
X87291333Y-57860812D02*
X87920286Y-57860812D01*
X87920286Y-57860812D02*
X87581619Y-58247860D01*
X87581619Y-58247860D02*
X87726762Y-58247860D01*
X87726762Y-58247860D02*
X87823524Y-58296241D01*
X87823524Y-58296241D02*
X87871905Y-58344622D01*
X87871905Y-58344622D02*
X87920286Y-58441384D01*
X87920286Y-58441384D02*
X87920286Y-58683289D01*
X87920286Y-58683289D02*
X87871905Y-58780051D01*
X87871905Y-58780051D02*
X87823524Y-58828432D01*
X87823524Y-58828432D02*
X87726762Y-58876812D01*
X87726762Y-58876812D02*
X87436476Y-58876812D01*
X87436476Y-58876812D02*
X87339714Y-58828432D01*
X87339714Y-58828432D02*
X87291333Y-58780051D01*
X106311095Y-58876812D02*
X106311095Y-57860812D01*
X106311095Y-57860812D02*
X106698143Y-57860812D01*
X106698143Y-57860812D02*
X106794905Y-57909193D01*
X106794905Y-57909193D02*
X106843286Y-57957574D01*
X106843286Y-57957574D02*
X106891667Y-58054336D01*
X106891667Y-58054336D02*
X106891667Y-58199479D01*
X106891667Y-58199479D02*
X106843286Y-58296241D01*
X106843286Y-58296241D02*
X106794905Y-58344622D01*
X106794905Y-58344622D02*
X106698143Y-58393003D01*
X106698143Y-58393003D02*
X106311095Y-58393003D01*
X107762524Y-58199479D02*
X107762524Y-58876812D01*
X107520619Y-57812432D02*
X107278714Y-58538146D01*
X107278714Y-58538146D02*
X107907667Y-58538146D01*
D11*
%TO.C,P1*%
X78535000Y-34593000D02*
X100535000Y-34593000D01*
X78535000Y-56593000D02*
X78535000Y-34593000D01*
X100535000Y-34593000D02*
X100535000Y-56593000D01*
X100535000Y-56593000D02*
X78535000Y-56593000D01*
D12*
%TO.C,P2*%
X109982000Y-45593000D02*
G75*
G02*
X105410000Y-45593000I-2286000J0D01*
G01*
X105410000Y-45593000D02*
G75*
G02*
X109982000Y-45593000I2286000J0D01*
G01*
%TO.C,P3*%
X89408000Y-61468000D02*
G75*
G02*
X84836000Y-61468000I-2286000J0D01*
G01*
X84836000Y-61468000D02*
G75*
G02*
X89408000Y-61468000I2286000J0D01*
G01*
%TO.C,P4*%
X109347000Y-61468000D02*
G75*
G02*
X104775000Y-61468000I-2286000J0D01*
G01*
X104775000Y-61468000D02*
G75*
G02*
X109347000Y-61468000I2286000J0D01*
G01*
%TD*%
M02*
