<?xml version="1.0" standalone="no"?>
 <!DOCTYPE svg PUBLIC "-//W3C//DTD SVG 1.1//EN" 
 "http://www.w3.org/Graphics/SVG/1.1/DTD/svg11.dtd"> 
<svg
  xmlns:svg="http://www.w3.org/2000/svg"
  xmlns="http://www.w3.org/2000/svg"
  xmlns:xlink="http://www.w3.org/1999/xlink"
  version="1.1"
  width="55.0926mm" height="90.0938mm" viewBox="0.0000 0.0000 55.0926 90.0938">
<title>SVG Image created as intelligence_based_placement_bottom.svg date 2026/05/07 12:30:50 </title>
  <desc>Image generated by PCBNEW </desc>
<g style="fill:#000000; fill-opacity:1.0000;stroke:#000000; stroke-opacity:1.0000;
stroke-linecap:round; stroke-linejoin:round;"
 transform="translate(0 0) scale(1 1)">
</g>
<g style="fill:#4D7FC4; fill-opacity:1.0000; stroke:none;">
<circle cx="30.4426" cy="29.8100" r="0.3000" /> 
</g>
<g style="fill:#4D7FC4; fill-opacity:1.0000; stroke:none;">
<circle cx="30.4426" cy="31.2100" r="0.3000" /> 
</g>
<g style="fill:#4D7FC4; fill-opacity:1.0000; stroke:none;">
<circle cx="29.7426" cy="29.1100" r="0.3000" /> 
</g>
<g style="fill:#4D7FC4; fill-opacity:1.0000; stroke:none;">
<circle cx="29.7426" cy="30.5100" r="0.3000" /> 
</g>
<g style="fill:#4D7FC4; fill-opacity:1.0000; stroke:none;">
<circle cx="29.7426" cy="31.9100" r="0.3000" /> 
</g>
<g style="fill:#4D7FC4; fill-opacity:1.0000; stroke:none;">
<circle cx="29.0426" cy="29.8100" r="0.3000" /> 
</g>
<g style="fill:#4D7FC4; fill-opacity:1.0000; stroke:none;">
<circle cx="29.0426" cy="31.2100" r="0.3000" /> 
</g>
<g style="fill:#4D7FC4; fill-opacity:1.0000; stroke:none;">
<circle cx="28.3426" cy="29.1100" r="0.3000" /> 
</g>
<g style="fill:#4D7FC4; fill-opacity:1.0000; stroke:none;">
<circle cx="28.3426" cy="30.5100" r="0.3000" /> 
</g>
<g style="fill:#4D7FC4; fill-opacity:1.0000; stroke:none;">
<circle cx="28.3426" cy="31.9100" r="0.3000" /> 
</g>
<g style="fill:#4D7FC4; fill-opacity:1.0000; stroke:none;">
<circle cx="27.6426" cy="29.8100" r="0.3000" /> 
</g>
<g style="fill:#4D7FC4; fill-opacity:1.0000; stroke:none;">
<circle cx="27.6426" cy="31.2100" r="0.3000" /> 
<path style="fill:#4D7FC4; fill-opacity:1.0000; stroke:none;fill-rule:evenodd;"
d="M 46.2426,62.7500
46.2426,65.3500
48.8426,65.3500
48.8426,62.7500
Z" /> 
</g>
<g style="fill:#4D7FC4; fill-opacity:1.0000; stroke:none;">
<circle cx="47.5426" cy="58.0500" r="1.3000" /> 
</g>
<g style="fill:#4D7FC4; fill-opacity:1.0000; stroke:none;">
<circle cx="52.2426" cy="61.0500" r="1.3000" /> 
</g>
<g style="fill:none; 
stroke:#4D7FC4; stroke-width:1.0000; stroke-opacity:1; 
stroke-linecap:round; stroke-linejoin:round;">
<path d="M31.1976 88.8700
L30.0976 88.8700
" />
<path d="M26.8676 88.8700
L26.0676 88.8700
" />
<path d="M31.1976 80.2300
L30.0976 80.2300
" />
<path d="M26.8676 80.2300
L26.0676 80.2300
" />
</g>
<g style="fill:#02FFEE; fill-opacity:0.4000; stroke:none;">
<circle cx="4.0426" cy="36.0500" r="1.3500" /> 
<path style="fill:#02FFEE; fill-opacity:0.4000; stroke:none;fill-rule:evenodd;"
d="M 46.2426,62.7500
46.2426,65.3500
48.8426,65.3500
48.8426,62.7500
Z" /> 
</g>
<g style="fill:#02FFEE; fill-opacity:0.4000; stroke:none;">
<circle cx="47.5426" cy="58.0500" r="1.3000" /> 
</g>
<g style="fill:#02FFEE; fill-opacity:0.4000; stroke:none;">
<circle cx="52.2426" cy="61.0500" r="1.3000" /> 
</g>
<g style="fill:#02FFEE; fill-opacity:0.4000; stroke:none;">
<circle cx="4.0426" cy="86.0500" r="1.3500" /> 
</g>
<g style="fill:#02FFEE; fill-opacity:0.4000; stroke:none;">
<circle cx="30.1476" cy="87.4400" r="0.3250" /> 
</g>
<g style="fill:#02FFEE; fill-opacity:0.4000; stroke:none;">
<circle cx="30.1476" cy="81.6600" r="0.3250" /> 
</g>
<g style="fill:none; 
stroke:#02FFEE; stroke-width:1.0000; stroke-opacity:1; 
stroke-linecap:round; stroke-linejoin:round;">
<path d="M31.1976 88.8700
L30.0976 88.8700
" />
<path d="M26.8676 88.8700
L26.0676 88.8700
" />
<path d="M31.1976 80.2300
L30.0976 80.2300
" />
<path d="M26.8676 80.2300
L26.0676 80.2300
" />
</g>
<g style="fill:#02FFEE; fill-opacity:0.4000; stroke:none;">
<circle cx="51.0426" cy="86.0500" r="1.3500" /> 
</g>
<g style="fill:#02FFEE; fill-opacity:0.4000; stroke:none;">
<circle cx="51.0426" cy="46.0500" r="1.3500" /> 
</g>
<g style="fill:none; 
stroke:#D0D2CD; stroke-width:0.1000; stroke-opacity:1; 
stroke-linecap:round; stroke-linejoin:round;">
<path d="M55.0426 0.0500
L0.0426 0.0500
" />
<path d="M55.0426 90.0500
L55.0426 0.0500
" />
<path d="M0.0426 90.0500
L55.0426 90.0500
" />
<path d="M0.0426 0.0500
L0.0426 90.0500
" />
</g>
<g style="fill:#FFFFFF; fill-opacity:1.0000; stroke:none;">
<circle cx="30.4426" cy="29.8100" r="0.1000" /> 
</g>
<g style="fill:#FFFFFF; fill-opacity:1.0000; stroke:none;">
<circle cx="30.4426" cy="31.2100" r="0.1000" /> 
</g>
<g style="fill:#FFFFFF; fill-opacity:1.0000; stroke:none;">
<circle cx="29.7426" cy="29.1100" r="0.1000" /> 
</g>
<g style="fill:#FFFFFF; fill-opacity:1.0000; stroke:none;">
<circle cx="29.7426" cy="30.5100" r="0.1000" /> 
</g>
<g style="fill:#FFFFFF; fill-opacity:1.0000; stroke:none;">
<circle cx="29.7426" cy="31.9100" r="0.1000" /> 
</g>
<g style="fill:#FFFFFF; fill-opacity:1.0000; stroke:none;">
<circle cx="29.0426" cy="29.8100" r="0.1000" /> 
</g>
<g style="fill:#FFFFFF; fill-opacity:1.0000; stroke:none;">
<circle cx="29.0426" cy="31.2100" r="0.1000" /> 
</g>
<g style="fill:#FFFFFF; fill-opacity:1.0000; stroke:none;">
<circle cx="28.3426" cy="29.1100" r="0.1000" /> 
</g>
<g style="fill:#FFFFFF; fill-opacity:1.0000; stroke:none;">
<circle cx="28.3426" cy="30.5100" r="0.1000" /> 
</g>
<g style="fill:#FFFFFF; fill-opacity:1.0000; stroke:none;">
<circle cx="28.3426" cy="31.9100" r="0.1000" /> 
</g>
<g style="fill:#FFFFFF; fill-opacity:1.0000; stroke:none;">
<circle cx="27.6426" cy="29.8100" r="0.1000" /> 
</g>
<g style="fill:#FFFFFF; fill-opacity:1.0000; stroke:none;">
<circle cx="27.6426" cy="31.2100" r="0.1000" /> 
</g>
<g style="fill:#FFFFFF; fill-opacity:1.0000; stroke:none;">
<circle cx="4.0426" cy="36.0500" r="1.3500" /> 
</g>
<g style="fill:#FFFFFF; fill-opacity:1.0000; stroke:none;">
<circle cx="47.5426" cy="64.0500" r="0.8000" /> 
</g>
<g style="fill:#FFFFFF; fill-opacity:1.0000; stroke:none;">
<circle cx="47.5426" cy="58.0500" r="0.8000" /> 
</g>
<g style="fill:#FFFFFF; fill-opacity:1.0000; stroke:none;">
<circle cx="52.2426" cy="61.0500" r="0.8000" /> 
</g>
<g style="fill:#FFFFFF; fill-opacity:1.0000; stroke:none;">
<circle cx="4.0426" cy="86.0500" r="1.3500" /> 
</g>
<g style="fill:#FFFFFF; fill-opacity:1.0000; stroke:none;">
<circle cx="30.1476" cy="87.4400" r="0.3250" /> 
</g>
<g style="fill:#FFFFFF; fill-opacity:1.0000; stroke:none;">
<circle cx="30.1476" cy="81.6600" r="0.3250" /> 
</g>
<g style="fill:none; 
stroke:#FFFFFF; stroke-width:0.6000; stroke-opacity:1; 
stroke-linecap:round; stroke-linejoin:round;">
<path d="M31.1976 88.8700
L30.0976 88.8700
" />
<path d="M26.8676 88.8700
L26.0676 88.8700
" />
<path d="M31.1976 80.2300
L30.0976 80.2300
" />
<path d="M26.8676 80.2300
L26.0676 80.2300
" />
</g>
<g style="fill:#FFFFFF; fill-opacity:1.0000; stroke:none;">
<circle cx="51.0426" cy="86.0500" r="1.3500" /> 
</g>
<g style="fill:#FFFFFF; fill-opacity:1.0000; stroke:none;">
<circle cx="51.0426" cy="46.0500" r="1.3500" /> 
</g> 
</svg>
